<svg width="24" height="24" viewBox="0 0 24 24" fill="none" xmlns="http://www.w3.org/2000/svg">
<g clip-path="url(#clip0_21_21)">
<path fill-rule="evenodd" clip-rule="evenodd" d="M14.5255 2.35018C15.5743 1.94987 16.7207 1.88133 17.8097 2.15382C18.6758 2.37051 19.4722 2.79454 20.1326 3.38509C20.9448 3.08657 21.7151 2.68256 22.4236 2.18282L23 2.99999L23.9716 3.2366C23.629 4.64313 22.9424 5.93955 21.9769 7.01096C21.9917 7.17236 21.9994 7.33442 22 7.49668L22 7.49998C22 13.5999 19.0631 18.075 14.8448 20.3202C10.6509 22.5525 5.29085 22.5278 0.514338 19.8741C0.109527 19.6492 -0.0879187 19.1758 0.0371299 18.73C0.162178 18.2841 0.577005 17.9824 1.03973 18.0008C2.72654 18.0679 4.39635 17.7325 5.91472 17.033C4.41157 16.1054 3.3294 15.0042 2.57704 13.8163C1.57341 12.2316 1.19454 10.5529 1.12601 9.04539C1.05769 7.54227 1.29646 6.18888 1.54746 5.21835C1.67356 4.73076 1.8044 4.33349 1.90526 4.05452C1.95575 3.91487 1.99889 3.8044 2.03042 3.72657C2.04619 3.68764 2.05908 3.65683 2.06854 3.63458L2.08011 3.60765L2.08306 3.6009C2.09011 3.58472 2.0976 3.56867 2.10555 3.55277L2.99998 3.99998L3.81834 3.42527C4.73388 4.72895 5.95762 5.78597 7.38058 6.5022C8.51244 7.0719 9.74238 7.4119 10.9997 7.5064C10.9923 6.39674 11.322 5.31064 11.9456 4.39204C12.5761 3.46324 13.4767 2.75048 14.5255 2.35018ZM3.40463 6.04359C3.22094 6.84496 3.07425 7.86122 3.12395 8.95458C3.18043 10.1971 3.48906 11.5184 4.26667 12.7462C5.04027 13.9676 6.31602 15.1572 8.40612 16.0862C8.73792 16.2336 8.96372 16.5494 8.99602 16.911C9.02831 17.2727 8.86204 17.6234 8.56161 17.8274C7.45067 18.5815 6.23418 19.1488 4.96008 19.5157C8.13025 20.3233 11.307 19.9376 13.9051 18.5547C17.4365 16.6751 19.9995 12.9008 20 7.50165C19.9992 7.28555 19.9783 7.06999 19.9378 6.85774C19.8751 6.52987 19.9801 6.19236 20.2178 5.95798C20.4406 5.73829 20.6469 5.50415 20.8357 5.25749C20.6092 5.34104 20.3799 5.41777 20.1483 5.48752C19.7717 5.60093 19.3635 5.48302 19.1054 5.18622C18.6376 4.64831 18.0159 4.26705 17.3243 4.094C16.6327 3.92096 15.9047 3.96449 15.2387 4.2187C14.5726 4.47291 14.0007 4.92553 13.6003 5.51536C13.1999 6.10519 12.9903 6.80375 12.9999 7.51658L13.0001 7.52998H13V8.52998C13 9.07217 12.5679 9.51559 12.0259 9.52965C10.1037 9.57949 8.19897 9.15317 6.4814 8.28866C5.33583 7.71206 4.29723 6.95247 3.40463 6.04359Z" fill="#41EAD4"/>
</g>
<defs>
<clipPath id="clip0_21_21">
<rect width="24" height="24" fill="white"/>
</clipPath>
</defs>
</svg>
